<svg xmlns="http://www.w3.org/2000/svg" viewBox="0 0 256 256"><rect width="256" height="256" rx="48" fill="#123353"/><path d="M68 43h91l29 29v141H68z" fill="#F7F8F8"/><path d="M159 43v29h29z" fill="#D9E0E6"/><rect x="87" y="83" width="66" height="10" rx="5" fill="#15A7A0"/><g fill="#B8C3CD"><rect x="87" y="108" width="82" height="8" rx="4"/><rect x="87" y="126" width="60" height="8" rx="4"/><rect x="87" y="150" width="38" height="16" rx="4"/><rect x="131" y="150" width="38" height="16" rx="4"/></g><circle cx="103" cy="190" r="22" fill="#15A7A0"/><path d="M103 176v28M94 181c0-6 18-6 18 0s-18 4-18 11 18 7 18 0" fill="none" stroke="#fff" stroke-width="6" stroke-linecap="round"/><rect x="151" y="115" width="58" height="58" rx="10" fill="#F7F8F8"/><g fill="#123353"><rect x="160" y="124" width="12" height="12"/><rect x="188" y="124" width="12" height="12"/><rect x="160" y="152" width="12" height="12"/><rect x="176" y="140" width="8" height="8"/><rect x="188" y="152" width="12" height="12"/><rect x="176" y="156" width="8" height="8"/><rect x="192" y="140" width="8" height="8"/></g></svg>