<svg xmlns="http://www.w3.org/2000/svg" viewBox="0 0 1200 400"><defs><linearGradient id="bg" x1="0" y1="0" x2="1" y2="1"><stop stop-color="#102a43"/><stop offset="1" stop-color="#071b2d"/></linearGradient></defs><rect width="1200" height="400" rx="34" fill="url(#bg)"/><path d="M0 135c160-65 280 52 430-18s285 50 430 0 245 15 340-35v318H0z" fill="#0b2237"/><path d="M0 255c180-68 300 30 460-20s270 50 410 10 220 10 330-22v177H0z" fill="#091d30"/><text x="72" y="165" fill="#edf4f5" font-family="Inter,Segoe UI,Arial,sans-serif" font-size="61" font-weight="700">Sistema de Cotizaciones</text><text x="74" y="214" fill="#9fb3c2" font-family="Inter,Segoe UI,Arial,sans-serif" font-size="24" letter-spacing="2">PDF · QR · costos</text><rect x="74" y="247" width="150" height="5" rx="3" fill="#3bd3df"/><rect x="244" y="247" width="64" height="5" rx="3" fill="#436579"/><g transform="translate(815 74)"><path d="M38 35h145l50 50v185H38z" fill="#edf4f5"/><rect x="62" y="84" width="107" height="12" rx="6" fill="#3bd3df"/><rect x="62" y="116" width="137" height="9" rx="4" fill="#7894a2"/><rect x="62" y="140" width="112" height="9" rx="4" fill="#7894a2"/><circle cx="92" cy="205" r="30" fill="#3bd3df"/><text x="82" y="216" font-size="34" font-family="Arial" font-weight="700" fill="#0d273d">$</text><rect x="182" y="148" width="104" height="104" rx="16" fill="#0d273d" stroke="#3bd3df" stroke-width="8"/><g fill="#edf4f5"><rect x="198" y="164" width="22" height="22"/><rect x="248" y="164" width="22" height="22"/><rect x="198" y="214" width="22" height="22"/><rect x="225" y="191" width="14" height="14"/><rect x="248" y="214" width="22" height="22"/></g></g></svg>